# xmcd CD database file
#
# Track frame offsets:
#	150
#	29473
#	56324
#	91400
#	119875
#	146382
#	184338
#	225837
#	251595
#	273883
#
# Disc length: 3932 seconds
#
# Revision: 0
# Processed by: cddbd v1.5PL3 Copyright (c) Steve Scherf et al.
# Submitted via: CDex 1.50
#
DISCID=840f5a0a
DTITLE=Harold Mabern Trio - Kiss of Fire
DYEAR=2001
DGENRE=Jazz
TTITLE0=How Insensitive
TTITLE1=It's A Lonesome Old Town
TTITLE2=Nancy ( With The Laughing Face)
TTITLE3=Bag's Groove
TTITLE4=Blue Bossa
TTITLE5=Black Orpheus
TTITLE6=Cheese Cake
TTITLE7=Recado Bossa Nova
TTITLE8=Kiss of Fire
TTITLE9=Brazil
EXTD=YEAR: 2001
EXTT0=
EXTT1=
EXTT2=
EXTT3=
EXTT4=
EXTT5=
EXTT6=
EXTT7=
EXTT8=
EXTT9=
PLAYORDER=
